# xmcd
#
# Track frame offsets:
#	150
#	12101
#	23728
#	36690
#	48372
#	62251
#	75860
#	91019
#	104701
#	118253
#	130762
#	141756
#	152398
#	164846
#	176696
#	190827
#	204441
#	215946
#	227436
#	239325
#	253044
#	265955
#	280867
#	293463
#	305539
#	321078
#
# Disc length: 4496 seconds
# Revision: 0
# Processed by: cddbd v1.5.2PL0 Copyright (c) Steve Scherf et al.
# Submitted via: dBpowerAMP V12.0
#
DISCID=6b118e1a
DTITLE=Various Artist - D1 - Down Home Blues - New York, Cincinnati and the Northeastern States
DYEAR=2018
DGENRE=Blues
TTITLE0=Big Chief Ellis - Big Chief's Blues
TTITLE1=Big Boy Ellis and His Rhythm - I Love You Baby
TTITLE2=Skoodle-Dum-Doo and Sheffield - Tampa Blues
TTITLE3=Skoodle-Dum-Doo and Sheffield - Gas Ration Blues
TTITLE4=Gabriel Brown - Hold That Train
TTITLE5=Gabriel Brown - I'll Be Seeing You One Of These Days
TTITLE6=Bob Camp and His Buddies - Gonna Pitch a Boogie
TTITLE7=Bob Camp and His Buddies - Reading Blues
TTITLE8=Irene Wiley - Boa Hog Blues
TTITLE9=Irene Wiley - Irene's Boogie Blues
TTITLE10=Big Chief Blues - Poor Man's Blues
TTITLE11=Big Chief Blues - Mr. Radio Announcer
TTITLE12=Fred Dunn - Fred's Boogie Woogie
TTITLE13=Fred Dunn - Baby Don't Feel Lowdown
TTITLE14=Hank Kilroy - Awful Shame
TTITLE15=Rosita (Chicken) Lockhart - Be Bop Daddy Blues
TTITLE16=Rosita (Chicken) Lockhart - Mean Mean Woman Blues
TTITLE17=Allen Bunn - Somebody Changed the Lock
TTITLE18=Allen Bunn - You're A Little Too Slow
TTITLE19=Gabriel Brown - Wrap Me Up Tight
TTITLE20=Gabriel Brown - I Can't Last Long
TTITLE21=Brownie McGhee - How Can I Love You
TTITLE22=Brownie McGhee - My Bulldog Blues
TTITLE23=John Tinsley and Fred Holland - Truble Blues
TTITLE24=Sonny Terry - Telephone Blues
TTITLE25=Sonny Terry - Tell Me, Tell Me
EXTD=
EXTT0=
EXTT1=
EXTT2=
EXTT3=
EXTT4=
EXTT5=
EXTT6=
EXTT7=
EXTT8=
EXTT9=
EXTT10=
EXTT11=
EXTT12=
EXTT13=
EXTT14=
EXTT15=
EXTT16=
EXTT17=
EXTT18=
EXTT19=
EXTT20=
EXTT21=
EXTT22=
EXTT23=
EXTT24=
EXTT25=
PLAYORDER=
